# xmcd
#
# Track frame offsets:
#        150
#        17183
#        32433
#        53370
#        66980
#        83394
#        99035
#        110582
#        125628
#        138664
#        154381
#        167623
#        187415
#        201998
#        214394
#        232717
#        247107
#
# Disc length: 3545 seconds
#
# Revision: 0
# Processed by: cddbd v1.5.2PL0 Copyright (c) Steve Scherf et al.
# Submitted via: CDGFix 3.8
#
DISCID=eb0dd711
DTITLE=Various Artist - CBESP453DISC03
DYEAR=1900
DGENRE=Karaoke
TTITLE0=Tracy Lawrence - Sticks And Stones
TTITLE1=Doug Stone - I'd Be Better Off In A Pine Box
TTITLE2=Wynonna - She Is His Only Need
TTITLE3=Aaron Tippin - There Ain't Nothin' Wrong With The Radio
TTITLE4=Doug Stone - A Jukebox With A Country Song
TTITLE5=Reba McEntire and Vince Gill - The Heart Won't Lie
TTITLE6=Alan Jackson - She's Got The Rhythm (And I Got The Blues)
TTITLE7=Collin Raye - In This Life
TTITLE8=Faith Hill - Wild One
TTITLE9=Billy Dean - Somewhere In My Broken Heart
TTITLE10=John Anderson - Straight Tequila Night
TTITLE11=Vince Gill - When I Call Your Name
TTITLE12=Garth Brooks - Somewhere Other Than The Night
TTITLE13=Martina McBride - My Baby Loves Me
TTITLE14=Collin Raye - Love Me
TTITLE15=Sammy Kershaw - She Don't Know She's Beautiful
TTITLE16=John Michael Montgomery - I Love The Way You Love Me
EXTD=
EXTT0=
EXTT1=
EXTT2=
EXTT3=
EXTT4=
EXTT5=
EXTT6=
EXTT7=
EXTT8=
EXTT9=
EXTT10=
EXTT11=
EXTT12=
EXTT13=
EXTT14=
EXTT15=
EXTT16=
PLAYORDER=
